# xmcd CD database file
#
# Track frame offsets:
#	150
#	18445
#	33547
#	53902
#	76287
#	94537
#	111925
#	129375
#	142550
#	163185
#	178687
#	195300
#
# Disc length: 2841 seconds
#
# Revision: 0
# Processed by: cddbd v1.5.1PL2 Copyright (c) Steve Scherf et al.
# Submitted via: CDex 1.51
#
DISCID=910b170c
DTITLE=moon story - blue moon
DYEAR=1995
DGENRE=Jazz
TTITLE0=ELLE VOULAIT JOUER CABARET/PATRICIA KAAS
TTITLE1=SOLO(CLUB DESERT)/VIKTOR LAZLO
TTITLE2=SUCCES DE LARMES/L'AFFAIRE LOUIS' TRIO
TTITLE3=MEME SI TU M'AIMES/CLAUDIA PHILLIPS
TTITLE4=MARVIN/DAVID KOVEN
TTITLE5=UNE FENETRE OUVERTE/PAULINE ESTER
TTITLE6=VENUS DES ABRIBUS/PATRICIA KAAS
TTITLE7=スローなブギにしてくれ/ARTHUR H.
TTITLE8=SERENADE ENTRE NOUS/FABIAN
TTITLE9=PARS/PHILIPPE SWAN
TTITLE10=PARLER D'AMOUR/UTE LEMPER with ART MENGO
TTITLE11=POISON/VIKTOR LAZLO
EXTD=YEAR: 1995
EXTT0=
EXTT1=
EXTT2=
EXTT3=
EXTT4=
EXTT5=
EXTT6=
EXTT7=
EXTT8=
EXTT9=
EXTT10=
EXTT11=
PLAYORDER=
